<?xml version="1.0"?>
<svg xmlns="http://www.w3.org/2000/svg" viewBox="0 0 2493.75 255.5">
  <defs>
    <style>.cls-1{fill:#e4201a;}.cls-2{fill:#1d1d1b;}</style>
  </defs>
  <g id="&#x421;&#x43B;&#x43E;&#x439;_2" data-name="&#x421;&#x43B;&#x43E;&#x439; 2">
    <g id="&#x421;&#x43B;&#x43E;&#x439;_1-2" data-name="&#x421;&#x43B;&#x43E;&#x439; 1">
      <circle class="cls-1" cx="123.41" cy="123.84" r="53.76"/>
      <circle class="cls-1" cx="125.93" cy="23.71" r="23.28"/>
      <circle class="cls-1" cx="120.89" cy="223.96" r="23.28"/>
      <circle class="cls-1" cx="223.53" cy="126.36" r="23.28"/>
      <circle class="cls-1" cx="23.28" cy="121.32" r="23.28"/>
      <circle class="cls-1" cx="193.68" cy="195.21" r="23.28"/>
      <circle class="cls-1" cx="53.14" cy="52.47" r="23.28"/>
      <circle class="cls-1" cx="199.98" cy="59.28" r="23.28"/>
      <circle class="cls-1" cx="46.84" cy="188.4" r="23.28"/>
      <path class="cls-2" d="M1413.37,242.63c0-.62.05-1.25.05-1.87q0-119.49,0-239c0-.56-.94-1.47.84-1.63a41.82,41.82,0,0,1,7.75,0c.24,0,.37.42.41.65a7.36,7.36,0,0,1,0,1.15q0,119.34,0,238.68c0,.66.31,1.34-.6,1.95Z"/>
      <path class="cls-2" d="M1685.29,120.63c-.07,42.31-26,73.09-69.47,82.62a159.15,159.15,0,0,1-26.43,3.38c-2.76.13-3.78.87-3.62,3.72.23,4.13,0,8.28.09,12.42.09,2.4-.38,3.46-3.19,3.54-12.78.36-12.78.46-12.78-12.29,0-6.94,0-7-6.72-7.48-14.3-1-28.29-3.41-41.66-8.77-33-13.24-52-41.89-51.34-77.45.88-43.57,29.63-76.34,73.28-83.62a173.86,173.86,0,0,1,22.87-2.29c2.75-.09,3.82-.8,3.63-3.68-.25-3.67.07-7.37-.11-11-.11-2.47.5-3.41,3.25-3.48,12.73-.35,12.92-.44,12.62,12.4-.09,4.24.83,5.82,5.36,5.94a120.23,120.23,0,0,1,43.43,9C1666.91,57,1685.35,85.08,1685.29,120.63Zm-99.47-.26c0,22.07.13,44.14-.11,66.21,0,4.29,1.28,5.07,5.19,4.84a134.18,134.18,0,0,0,25.86-3.89c31.56-8.15,50.61-31.39,52.24-64.58,1.33-27.21-14.39-56.43-43.76-66.8a126.72,126.72,0,0,0-35.09-6.63c-3.37-.2-4.45.61-4.42,4.19C1585.91,75.93,1585.82,98.15,1585.82,120.37Zm-15.93.06c0-22.38-.06-44.77.07-67.16,0-3-.83-3.94-3.85-3.76a141.37,141.37,0,0,0-17.82,2c-18.22,3.41-34.61,10-46.52,25.29-29.8,38.13-14.4,93.37,30.55,108.74a120.84,120.84,0,0,0,33.39,5.94c3.6.18,4.28-1,4.26-4.32C1569.82,164.9,1569.89,142.67,1569.89,120.43Z"/>
      <path class="cls-2" d="M1920.45,116.25c-.34,29.2-8.73,52-26,71-36.45,40.21-89.17,41.24-123.74,21.8a6.06,6.06,0,0,0-5.6-.6c-12.21,4.48-24.52,8.7-36.72,13.2a8.76,8.76,0,0,1-9.4-1.6,7.58,7.58,0,0,1-2.11-9.2c3.23-7.77,6.13-15.76,10.23-23.05,4.9-8.71,4.62-15.81-.08-25.14-18.87-37.46-10.51-83.65,19.24-113.76,33.14-33.52,83.28-40.83,123.76-16.63C1902.76,51.8,1919.29,81.58,1920.45,116.25Zm-179.63,83c8.3-3,15.6-5.58,22.85-8.32a12.47,12.47,0,0,1,11.78,1c16.53,10.17,34.53,13.75,53.76,11.49,47-5.53,80.94-50.66,73-97.07-7.9-46.14-49.59-76.41-96.17-69.82-60,8.47-91.5,78-58.18,128.41,3.3,5,4,9.57,1.36,15C1746.31,185.91,1743.89,192.12,1740.82,199.22Z"/>
      <path class="cls-2" d="M2476.43,48,2445.81,88.1q-18,23.6-36,47.2a9.53,9.53,0,0,1-14.78,0l-64.48-83.88c-.92-1.2-1.88-2.36-3.69-4.63v5.88q0,81.66.11,163.32c0,4.26-1.14,5.37-5.32,5.26-11-.27-11-.07-11-11q0-92.47-.09-184.94c0-4,1.06-4.78,5-5.19,8-.84,12.64,2.31,17.33,8.61,21.77,29.29,44.1,58.15,66.24,87.17,3.27,4.28,3.29,4.28,6.69-.18,22.32-29.26,44.79-58.41,66.79-87.9,4.2-5.63,8.4-8.28,15.48-7.7,4.18.34,5.64.88,5.63,5.52q-.27,95.22,0,190.45c0,4.43-1.38,5.26-5.4,5.17-10.94-.24-10.94-.07-10.94-11.11V48.31Z"/>
      <path class="cls-2" d="M1953.08,120.89c0-31.89.09-63.78-.11-95.67,0-4.23,1.21-5,5.12-5,26.09.18,52.18,0,78.27.12A83.8,83.8,0,0,1,2064,24.7c27.3,9.51,38,32.26,35.05,57.2-3.08,26-20.24,42.59-46.86,46.8a107.25,107.25,0,0,1-17,1.16c-20.56,0-41.13.08-61.69-.08-3.5,0-4.38,1.05-4.37,4.43.13,27.45,0,54.89.14,82.34,0,3.43-.62,5.18-4.48,4.67s-8.82,1.61-11-.89c-1.86-2.1-.64-7-.65-10.66Q1953.06,165.27,1953.08,120.89Zm16-46c0,11.94.11,23.89-.06,35.84,0,3.21.91,4.26,4.14,4.11,5.51-.25,11,0,16.56-.08,18.84-.37,37.73,1.08,56.53-.79,25.4-2.52,38.76-18.55,36.81-43.81-1.09-14.1-8.25-24-21.18-29.76a56.61,56.61,0,0,0-22.8-4.68c-22.08-.08-44.16,0-66.24-.14-3.15,0-3.85,1-3.81,3.92C1969.15,51.33,1969.07,63.12,1969.07,74.92Z"/>
      <path class="cls-2" d="M2117.64,20.35c5.16,0,10.33.13,15.5-.05,2.74-.09,3.19,2,4.11,3.62q27.27,49,54.48,98l14.84,26.61c1.06-2.15,1.87-3.69,2.59-5.27Q2236.43,84,2263.6,24.74c1.58-3.47,3.5-4.89,7.24-4.45a38.46,38.46,0,0,0,7.81,0c3.91-.33,4.84.59,3,4.44-7.11,14.75-14,29.63-20.88,44.47q-25.76,55.13-51.51,110.26c-5.21,11.14-11,21.87-19.38,31.08-14.47,16-32.42,16.35-52.15,10.87-1.87-.52-2.15-1.81-2.1-3.51.09-3.22.13-6.44,0-9.66-.12-2.66.38-3.6,3.3-2.42,5.44,2.22,11.2,2.93,17.09,3.15,9.22.34,16.71-3,22.93-9.68,8.54-9.12,13.6-20.28,18.7-31.44,1.08-2.37-.64-3.81-1.54-5.42q-30.06-54-60.23-107.93c-5.6-10-11.22-20-16.78-30.1C2118.44,23.26,2117.34,22.23,2117.64,20.35Z"/>
      <path class="cls-2" d="M296.79,255.21h-.43v-26l.72,0c-.09,1.08-.25,2.15-.26,3.22C296.79,240.06,296.8,247.63,296.79,255.21Z"/>
      <path class="cls-2" d="M425.26,71.12c0-18.7,0-37.4-.05-56.1,0-2.32.38-3.18,3-3.17q37.08.17,74.17,0c2.14,0,2.88.43,2.84,2.72-.1,6.53,0,6.53-6.41,6.53-20.19,0-40.39,0-60.58-.05-2.49,0-3.39.46-3.35,3.2.16,11.7.13,23.42,0,35.13,0,2.21.57,2.81,2.78,2.8,17.34-.1,34.68,0,52-.11,2.54,0,3.61.42,3.49,3.31-.24,6-.06,6-6.11,6-16.35,0-32.7,0-49.05-.06-2.43,0-3.16.6-3.14,3.09.12,14.56.14,29.13,0,43.69,0,2.77.89,3.17,3.34,3.16q37.68-.16,75.36-.12c5.78,0,9.91-2.87,13-7.38,5.25-7.55,7.36-16.24,8.57-25.15,2.26-16.51,2.56-33.15,3-49.77.21-8.26.42-16.52.53-24.79,0-1.67.52-2.16,2.19-2.15q33.54.07,67.09,0c2.41,0,2.1,1.36,2.1,2.84q0,37.05,0,74.1c0,12.8-.07,25.59.05,38.39,0,2.49-.72,3.11-3.13,3.06-6.67-.13-6.68,0-6.68-6.54q0-49.74.06-99.49c0-2.36-.45-3.19-3-3.17-15.37.13-30.73.11-46.1,0-2.23,0-3,.49-3.06,2.89-.39,18.49-.7,37-2.39,55.43-1,10.59-2.41,21.1-6.45,31.06-3.84,9.48-9.64,16.9-20.27,19.22a34,34,0,0,1-7.33.75c-27.88,0-55.76,0-83.64.06-2.39,0-2.9-.72-2.89-3C425.29,108.71,425.26,89.92,425.26,71.12Z"/>
      <path class="cls-2" d="M318,71.24c0-18.8,0-37.59-.05-56.39,0-2.21.42-3,2.86-3q37.09.15,74.18,0c2.16,0,2.86.47,2.83,2.74-.09,6.51,0,6.51-6.46,6.51-20.19,0-40.39,0-60.58-.05-2.32,0-3.22.37-3.18,3,.17,10.42.13,20.86,0,31.29,0,2.09.58,2.61,2.64,2.6,12.9-.08,25.81-.21,38.71.06,10.2.22,19.68,3.05,27.27,10.27C406.9,78.43,408.9,91.1,405.5,104.7s-13.12,20.73-26.14,24.09a54.54,54.54,0,0,1-13.46,1.61c-15.07,0-30.14,0-45.21.08-2.3,0-2.77-.72-2.76-2.85C318,108.83,318,90,318,71.24Zm33.09,50c6.59-.33,14.59.66,22.52-.66,10-1.66,18.09-6,21.86-16.11a31,31,0,0,0,1.42-13.69c-.76-8.9-5-15.59-13-19.76a32.3,32.3,0,0,0-12.69-3.6c-13.87-1-27.77-.19-41.65-.49-2,0-1.9,1.06-1.9,2.42,0,16.53,0,33.07,0,49.6,0,1.78.43,2.36,2.29,2.33C336.49,121.14,343.09,121.21,351.07,121.21Z"/>
      <path class="cls-2" d="M1348.78,29.52a4.9,4.9,0,0,0-2.41,2.23L1273,128c-1.56,2-7,3.4-9.27,2.36a1.16,1.16,0,0,1-.73-1.14c0-.69,0-1.37,0-2.06q0-55.93-.06-111.87c0-2.63.55-3.54,3.35-3.45,6.46.22,6.47.07,6.47,6.47v95c1.22-1.55,2-2.49,2.71-3.45l72.57-95.35c1.63-2.14,7.4-3.58,9.76-2.5a1.12,1.12,0,0,1,.69,1.15c0,.69,0,1.38,0,2.07q0,55.94.06,111.87c0,2.65-.59,3.53-3.37,3.44-6.43-.21-6.43-.06-6.43-6.53V29.52Z"/>
      <path class="cls-2" d="M1229.18,28.55c-3.94,5.17-7.37,9.66-10.79,14.16l-64.77,85c-1.76,2.32-6.84,3.72-9.41,2.68a1.07,1.07,0,0,1-.75-1.09c0-.69,0-1.38,0-2.07,0-37.39,0-74.79-.07-112.19,0-2.7.76-3.24,3.27-3.17,6.38.18,6.38.05,6.38,6.52v94.29c1.33-.35,1.69-1.34,2.24-2l73.31-96.3c1.47-1.94,7.49-3.4,9.56-2.33a1.18,1.18,0,0,1,.63,1.21c0,.79,0,1.57,0,2.36q0,55.65.06,111.3c0,2.74-.49,3.76-3.49,3.64-6.16-.25-6.17-.07-6.17-6.17V28.55Z"/>
      <path class="cls-2" d="M731.6,130.43c-3.34,1.12-4.88-1-6.29-4.35-3.94-9.31-8.3-18.45-12.39-27.71a3.28,3.28,0,0,0-3.53-2.26q-29.68.11-59.39,0c-2.06,0-2.9.78-3.67,2.51-4.38,9.88-8.91,19.69-13.27,29.58-.74,1.69-1.61,2.52-3.49,2.25-2.46-.34-5.81,1.14-7.12-.75-.75-1.08,1.53-4.31,2.54-6.54q24.56-54.37,49.09-108.77c1-2.23,2.1-3,4.68-3.23,4.1-.31,5.85,1.26,7.47,4.91,16.43,37,33.09,73.86,49.68,110.77,1.62,3.6,1.62,3.6-2.25,3.6Zm-80.52-43c18.39,0,36.21,0,54,0,2.62,0,2.87-.48,1.79-2.83-8-17.49-15.93-35-23.88-52.59-1-2.34-2.12-4.66-3.38-7.4Z"/>
      <path class="cls-2" d="M1126.81,12.56l-32.52,28.28c-9.07,7.88-18.08,15.83-27.25,23.59-2,1.66-1.59,2.43.08,3.91q33.69,29.89,67.28,59.91c.58.52,1.14,1.06,2.26,2.09-5.17,0-9.71.2-14.22-.12-1.2-.09-2.33-1.68-3.43-2.66l-60.35-53.93-2.34-2c-.87,1-.47,2.08-.47,3.06,0,17.61-.06,35.23,0,52.85,0,2.26-.49,3-2.91,3-6.88-.13-6.88,0-6.88-7,0-36,0-72-.09-108.06,0-3.12.91-3.73,3.78-3.63,6,.22,6.06.07,6.06,6.28v43.1c1.34.36,1.84-.72,2.51-1.3q26.7-23.08,53.32-46.26a6.33,6.33,0,0,1,4.73-1.79c3.4.13,6.81,0,10.22,0Z"/>
      <path class="cls-2" d="M749.08,71c0-18.69,0-37.38-.06-56.07,0-2.43.58-3.11,3.06-3.09,15.56.12,31.12,0,46.67.07a44.55,44.55,0,0,1,19.2,4c12,5.65,17.46,15.41,17.46,28.36S829.83,67,817.93,72.67a44.81,44.81,0,0,1-19.5,4c-12.31,0-24.61.08-36.92,0-2.33,0-2.93.62-2.92,2.93.1,16,0,32.07.11,48.1,0,2.17-.48,2.86-2.75,2.83-6.87-.1-6.87,0-6.87-6.94Zm9.56-26.83c0,7,.06,14,0,21,0,1.75.36,2.38,2.26,2.37,13.2-.1,26.4,0,39.6-.12A32.56,32.56,0,0,0,812.55,65c8.63-3.45,13.22-10.66,13.24-20.7s-4.46-17-13-20.54a35.65,35.65,0,0,0-13.84-2.57c-12.61,0-25.22,0-37.83-.07-1.89,0-2.55.45-2.51,2.44C758.72,30.41,758.65,37.3,758.64,44.19Z"/>
      <path class="cls-2" d="M296.79,255.21c0-7.58,0-15.15,0-22.73,0-1.07.17-2.14.26-3.22,6.11,1.43,9.35-1.4,11.92-6.84a90.6,90.6,0,0,0,8.06-31.19c.86-9.61.76-19.26.68-28.89,0-2.09.61-2.65,2.67-2.64q21.25.12,42.53,0c2.32,0,2.73.75,2.72,2.86-.07,21.25,0,42.5-.1,63.74,0,2.45.64,3.45,3.08,3a1,1,0,0,1,.3,0c2.71.21,6.23-1.18,7.94.58,1.56,1.6.41,5.06.44,7.69.06,5.12-.05,10.23.06,15.35,0,1.82-.34,2.54-2.38,2.55-6.81,0-6.81.11-6.81-6.71,0-2.65-.08-5.31,0-8,.07-1.71-.38-2.44-2.27-2.44q-28.95.09-57.89,0c-1.93,0-2.28.71-2.24,2.41.11,4.13-.06,8.27.08,12.39.07,1.88-.57,2.45-2.34,2.28C301.3,255.25,299,255.72,296.79,255.21Zm59.5-56.13c0-9.24,0-18.49,0-27.74,0-1.53,0-2.56-2.12-2.54-8.37.12-16.74.09-25.11,0-1.6,0-2,.57-2,2.07.06,3.63.07,7.28-.09,10.91-.68,15.8-2.37,31.39-10.14,45.61-1.25,2.3.33,1.91,1.57,1.91,11.82,0,23.63,0,35.45.05,2,0,2.43-.71,2.42-2.55C356.25,217.58,356.29,208.33,356.29,199.08Z"/>
      <path class="cls-2" d="M1031.18,110.49a22.4,22.4,0,0,0,0,4.36c1.11,5.19-1.68,7.76-5.87,10-33.28,17.81-81.53,4.82-89.6-41.75-4.29-24.76,2.66-46.18,23.27-62,19.22-14.81,49.55-13.95,67.82-2.62a3,3,0,0,1,1.8,3,53.43,53.43,0,0,0,0,6.2c.12,2.23-.57,2.3-2.26,1.18a57.16,57.16,0,0,0-22.32-8.8c-34.92-5.91-61.76,21-59.46,54.5,1.51,21.89,11.79,38,32.62,45.48,17.91,6.43,35.3,3.59,51-7.73C1029,111.68,1029.66,110.74,1031.18,110.49Z"/>
      <path class="cls-2" d="M889.69,87.38c.79-1.69,1.38-2.91,1.95-4.14q15.84-34.39,31.63-68.8c.85-1.86,1.77-2.75,3.91-2.57,2.44.22,4.91.05,7.32.05.5,1.12-.22,1.83-.57,2.58q-21.48,46.07-43,92.11A70.31,70.31,0,0,1,881,122.94c-8.74,10.19-19.33,11.15-31.73,7.63a1.68,1.68,0,0,1-1.4-1.9c0-2.62,0-5.25,0-8.12A35.31,35.31,0,0,0,860.8,123a16.29,16.29,0,0,0,11.67-4.84c5.54-5.43,8.64-12.35,11.81-19.23.64-1.39-.33-2.25-.87-3.22Q862.74,58.67,842,21.6c-1.48-2.66-2.94-5.33-4.45-8-.72-1.27-.42-1.74,1-1.71,2.56.05,5.12.12,7.68,0,1.76-.11,2.08,1.21,2.67,2.26Q865,43,881.05,71.87C883.82,76.85,886.59,81.83,889.69,87.38Z"/>
      <path class="cls-2" d="M512.07,176.85q-4.37,5.7-8.74,11.41-6.54,8.55-13.06,17.13a5.13,5.13,0,0,1-8.31.08l-22.09-28.71c-.72,1.1-.44,2.18-.44,3.16,0,18.49-.06,37,0,55.48,0,2.47-.69,3.14-3.12,3.08-6.3-.14-6.3,0-6.3-6.29,0-23,0-46-.06-69.06,0-2.56.49-3.38,3.3-3.52,3.8-.19,6,1.17,8.22,4.17,7.37,10.09,15.13,19.89,22.61,29.89,1.5,2,2.18,2.36,3.87.1,8.05-10.8,16.29-21.47,24.46-32.18,1.15-1.5,7.44-2.72,8.94-1.69,1,.69.55,1.81.56,2.74q0,25.38,0,50.76c0,7.47-.08,14.95,0,22.42,0,2.08-.59,2.66-2.65,2.65-6.72,0-6.72.06-6.72-6.78V177.13Z"/>
      <path class="cls-2" d="M884.13,219.1c1.14-.44,1.57-1.48,2.19-2.29q21.3-27.94,42.57-55.9c1.43-1.87,6.62-3.17,8.75-2.17,1.23.58.68,1.72.68,2.6,0,9.94,0,19.88,0,29.82,0,14.47-.05,28.94,0,43.4,0,2.18-.5,2.85-2.76,2.82-6.65-.1-6.65,0-6.65-6.58v-55c-1.14,1.39-1.87,2.24-2.55,3.13q-21.3,27.93-42.59,55.88c-1.58,2.09-6.35,3.38-8.64,2.42-1-.43-.73-1.28-.74-2,0-4.33,0-8.66,0-13,0-20.17,0-40.35-.06-60.52,0-2.36.44-3.22,3-3.16,6.42.17,6.42,0,6.42,6.54q0,25.38,0,50.78C883.84,217,883.54,218,884.13,219.1Z"/>
      <path class="cls-2" d="M1277.67,175.59l-18.37,24.08-27.19,35.7c-1.22,1.6-6.64,2.82-8.32,1.85-1.1-.63-.62-1.77-.62-2.68q0-17.56,0-35.14c0-12.69,0-25.39,0-38.08,0-2,.41-2.71,2.56-2.7,6.78,0,6.78-.06,6.78,6.76q0,25.25,0,50.49a6.09,6.09,0,0,0,.44,3.44c.75-.9,1.44-1.66,2-2.47l42.75-56.13c1.28-1.68,7.22-2.91,8.84-1.86.76.49.49,1.23.49,1.86q0,37.2,0,74.41c0,1.61-.4,2.19-2.13,2.24-7.29.22-7.28.28-7.28-7.09Z"/>
      <path class="cls-2" d="M1348.17,176.06a4.73,4.73,0,0,0-2.34,2.21q-21.57,28.26-43.1,56.56c-1.26,1.65-6.82,3-8.54,1.95-1.09-.64-.56-1.78-.56-2.68q0-29.07,0-58.14c0-5.11.07-10.23,0-15.34,0-1.74.34-2.36,2.24-2.38,7.18-.06,7.17-.14,7.17,6.89v53.81c1.17-.32,1.48-1.21,2-1.85q21.46-28.15,42.91-56.33c1.57-2.06,6.65-3.42,8.94-2.41,1.15.51.67,1.52.67,2.3,0,8.56,0,17.12,0,25.67,0,15.94,0,31.87,0,47.81,0,2.16-.47,2.84-2.74,2.8-6.64-.11-6.64,0-6.64-6.56V176.06Z"/>
      <path class="cls-2" d="M608.16,198.14c-.14,18.55-11,33.92-27.5,38.78-25.42,7.52-49.74-10.07-50.73-36.7-.69-18.42,8.66-34.13,24.38-40.07C581.73,149.78,608.52,169.39,608.16,198.14Zm-9.47-.25c0-21.6-18.68-36.16-38.54-30.11-13.08,4-21.42,16.89-20.79,32.18.82,19.66,18.12,33,37,28.64C589.48,225.54,598.72,212.82,598.69,197.89Z"/>
      <path class="cls-2" d="M385,199.06c0-12.19.06-24.39-.06-36.59,0-2.23.6-2.79,2.79-2.78q24.38.13,48.74,0c2,0,2.73.44,2.72,2.59,0,6.56.06,6.56-6.38,6.56-11.81,0-23.63.08-35.44-.06-2.53,0-3.11.71-3,3.12.18,5.7.16,11.41,0,17.11-.05,2.17.51,2.84,2.77,2.81,10.34-.12,20.68,0,31-.11,2.5,0,3.41.45,3.31,3.19-.23,5.9-.06,5.91-6.11,5.91-9.45,0-18.91.06-28.36,0-2.05,0-2.66.5-2.63,2.6.13,7.77.15,15.54,0,23.31-.05,2.34.76,2.7,2.85,2.69,13.49-.09,27,0,40.47-.1,2.34,0,3.27.41,3.2,3-.16,6.16,0,6.16-6.2,6.16-15.55,0-31.11-.06-46.67.06-2.52,0-3.06-.74-3-3.13C385.11,223.26,385,211.16,385,199.06Z"/>
      <path class="cls-2" d="M1024.17,198c0-12.11,0-24.21-.05-36.31,0-2.21.42-3.06,2.87-3.05q24.38.18,48.76,0c2,0,2.67.53,2.65,2.62-.06,6.48,0,6.48-6.43,6.48-11.92,0-23.84.07-35.76-.05-2.27,0-2.79.64-2.73,2.8.15,5.8.18,11.62,0,17.42-.09,2.45.78,2.9,3,2.87,10.34-.1,20.69,0,31-.09,2.35,0,3.26.43,3.18,3-.18,6,0,6-6,6-9.55,0-19.11,0-28.66,0-1.86,0-2.54.39-2.51,2.4q.18,11.81,0,23.62c0,2.1.63,2.61,2.66,2.6,13.49-.09,27,0,40.48-.1,2.55,0,3.63.42,3.5,3.32-.24,5.84-.06,5.84-5.93,5.84-15.66,0-31.32,0-47,.06-2.48,0-3.13-.66-3.1-3.11C1024.24,222.17,1024.17,210.06,1024.17,198Z"/>
      <path class="cls-2" d="M815.31,237.32c-3,0-5.74-.07-8.46,0-1.46,0-1.76-1-2.2-1.94-2.63-5.82-5.31-11.61-7.85-17.47-.75-1.73-1.6-2.51-3.67-2.49-11.32.12-22.65.1-34,0a3.22,3.22,0,0,0-3.51,2.28c-2.52,5.87-5.26,11.63-7.79,17.49-.69,1.6-1.58,2.28-3.33,2.12a30.05,30.05,0,0,0-5,0c-2.28.17-2.64-.39-1.65-2.55,5.72-12.4,11.29-24.86,16.92-37.3s11.33-24.84,16.81-37.35c1.25-2.84,3.38-1.64,5.21-1.82,1.58-.15,3.09-.39,4.06,1.79q16.77,37.68,33.76,75.28C814.85,235.92,815,236.47,815.31,237.32Zm-23.55-30.68-15.6-34.43c-5.33,11.73-10.44,23-15.66,34.43Z"/>
      <path class="cls-2" d="M629.62,188.68l19.19-16.6c4.61-4,9.24-8,13.8-12a5.05,5.05,0,0,1,3.7-1.42c3.6.09,7.21,0,11.59,0l-14.08,12.26c-8.54,7.43-17.05,14.89-25.65,22.24-1.62,1.38-1.63,2.1,0,3.52q20.58,18.18,41,36.5l4.52,4.06c-5,0-9.34.09-13.65-.07-.81,0-1.62-1-2.34-1.67q-17.52-15.62-35-31.27c-.8-.72-1.63-1.41-2.51-2.17-1,.81-.53,1.86-.54,2.74,0,9.84-.07,19.68,0,29.51,0,2.15-.3,3.13-2.84,3.07-6.55-.15-6.55,0-6.55-6.65,0-23,0-46-.06-69.05,0-2.42.57-3.15,3.06-3.09,6.35.17,6.35,0,6.35,6.31Z"/>
      <path class="cls-2" d="M1167.33,188.73,1183.15,175c5.65-4.89,11.34-9.76,16.93-14.72a6,6,0,0,1,4.49-1.68c3.41.12,6.83,0,11.08,0l-12.13,10.59c-9.21,8-18.38,16.05-27.67,24-1.71,1.46-1.48,2.11.05,3.46q21.57,19.06,43,38.27a5.36,5.36,0,0,1,1.79,2.33c-4.26,0-8.52,0-12.79,0-1,0-1.63-1-2.35-1.66q-17.74-15.81-35.47-31.65c-.71-.63-1.44-1.24-2.21-1.91-.9,1.15-.53,2.26-.53,3.27,0,9.84-.06,19.67,0,29.51,0,1.83-.38,2.56-2.44,2.56-6.85,0-6.85.11-6.85-6.67,0-22.92,0-45.84,0-68.76,0-2.44.37-3.44,3.15-3.34,6.15.22,6.16.05,6.16,6.18Z"/>
      <path class="cls-2" d="M685.32,198c0-12.19.07-24.39-.06-36.58,0-2.26.62-2.79,2.79-2.75,11.42.24,22.85-.39,34.25.33,10.83.67,18.88,7.4,20.8,16.92,2.74,13.6-5.5,25-19.39,26.76-8.62,1.06-17.3.36-26,.41-2.4,0-3.16.53-3.11,3.05.15,9.53,0,19.08.1,28.61,0,2-.52,2.68-2.62,2.67-6.8,0-6.8.06-6.8-6.67Zm24.48-30.23c-5,0-9.11,0-13.25,0-1.38,0-1.89.4-1.88,1.83.06,7.57.05,15.15,0,22.72,0,1.21.32,1.8,1.66,1.78,8.56-.15,17.14.42,25.69-.3,7.55-.64,11.83-5.19,12.21-12.32.36-7-3.46-11.61-10.85-13.18C718.61,167.21,713.77,168,709.8,167.72Z"/>
      <path class="cls-2" d="M1148.62,220c0,3.12,0,6.23,0,9.33,0,1.2-.79,1.75-1.61,2.28-12.69,8.26-26.24,9.44-40,3.55-13.21-5.67-20.74-16.32-22.66-30.52-2.16-16,2.4-29.63,15.54-39.68,12.32-9.42,32-10.09,45.16-1.85a3.19,3.19,0,0,1,1.85,3.29c-.14,1.67,0,3.35,0,5,0,.94.48,2.23-.34,2.75s-1.73-.6-2.5-1.12a37.05,37.05,0,0,0-14.6-6c-20.63-3.53-38.1,12.68-36.07,33.52,1.49,15.33,10.53,26,24.66,28.39,9.7,1.62,18.82-.27,26.7-6.58,1-.8,2-1.59,3-2.36C1147.89,219.89,1148.13,220,1148.62,220Z"/>
      <path class="cls-2" d="M1008.8,198c0,12.19-.06,24.39.05,36.58,0,2.18-.53,2.86-2.78,2.82-6.54-.09-6.54,0-6.54-6.4,0-8.46,0-16.92,0-25.37,0-2-.28-2.52-2.46-1.91-10,2.81-20.11,3.9-30.31,1.41-10-2.44-15.64-9.31-16-19.6-.29-8.25-.09-16.52-.18-24.78,0-1.49.39-2,2-2.09,7.33-.33,7.3-.39,7.34,6.77,0,6.29-.07,12.59.28,18.87.42,7.61,4.13,11.3,11.64,12.48a53.66,53.66,0,0,0,25-2.35c2-.63,2.77-1.51,2.74-3.71-.13-9.63,0-19.27-.11-28.91,0-2.35.44-3.24,3-3.17,6.3.17,6.31,0,6.31,6.31Z"/>
      <path class="cls-2" d="M839.89,202.64c0,10.62,0,21.25.05,31.87,0,2.14-.46,2.9-2.76,2.87-6.56-.1-6.56,0-6.56-6.67,0-20,0-39.94,0-59.91,0-2.39-.51-3.21-3-3.14-7,.17-14,0-21,.1-2,0-2.72-.4-2.71-2.56,0-6.46-.07-6.47,6.44-6.47,17.73,0,35.45,0,53.18,0,2.26,0,3,.51,3,2.9-.12,6.12,0,6.13-6.24,6.13-6,0-12,.07-18-.05-2,0-2.49.59-2.48,2.5C839.94,181,839.9,191.82,839.89,202.64Z"/>
      <path class="cls-2" d="M1301.45,34.76a28.16,28.16,0,0,0,0-4.11c-.89-5.94,1-10.85,5.07-15.18,1.19-1.26,2.19-2,3.93-1.86,2.34.14,4.7,0,7.7,0L1302,35.16Z"/>
      <path class="cls-2" d="M1331.19,159.48l-13,17.37c-1-6.45-.65-12.07,4.24-16.62a3.38,3.38,0,0,1,2.68-.74C1326.91,159.45,1328.74,159.48,1331.19,159.48Z"/>
    </g>
  </g>
</svg>
